<?xml version="1.0" encoding="UTF-8" standalone="no"?>
<!-- Created with Inkscape (http://www.inkscape.org/) -->

<svg
   xmlns:dc="http://purl.org/dc/elements/1.1/"
   xmlns:cc="http://creativecommons.org/ns#"
   xmlns:rdf="http://www.w3.org/1999/02/22-rdf-syntax-ns#"
   xmlns:svg="http://www.w3.org/2000/svg"
   xmlns="http://www.w3.org/2000/svg"
   xmlns:sodipodi="http://sodipodi.sourceforge.net/DTD/sodipodi-0.dtd"
   xmlns:inkscape="http://www.inkscape.org/namespaces/inkscape"
   width="1369.4044"
   height="826.25238"
   id="svg2"
   version="1.1"
   inkscape:version="0.48.0 r9654"
   sodipodi:docname="Neues Dokument 1">
  <defs
     id="defs4" />
  <sodipodi:namedview
     id="base"
     pagecolor="#ffffff"
     bordercolor="#666666"
     borderopacity="1.0"
     inkscape:pageopacity="0.0"
     inkscape:pageshadow="2"
     inkscape:zoom="0.49497475"
     inkscape:cx="412.22633"
     inkscape:cy="577.27774"
     inkscape:document-units="px"
     inkscape:current-layer="layer1"
     showgrid="false"
     showguides="true"
     inkscape:guide-bbox="true"
     inkscape:window-width="1920"
     inkscape:window-height="1017"
     inkscape:window-x="1912"
     inkscape:window-y="1042"
     inkscape:window-maximized="1"
     fit-margin-top="0"
     fit-margin-left="0"
     fit-margin-right="0"
     fit-margin-bottom="0">
    <sodipodi:guide
       orientation="1,0"
       position="1236.1186,-105.64456"
       id="guide3786" />
    <sodipodi:guide
       orientation="0,1"
       position="583.56008,0.4214544"
       id="guide3788" />
    <sodipodi:guide
       orientation="1,0"
       position="1.712272,-93.522735"
       id="guide3794" />
    <sodipodi:guide
       orientation="0,1"
       position="1451.2021,822.85715"
       id="guide3796" />
    <sodipodi:guide
       orientation="1,0"
       position="1369.0592,548.57148"
       id="guide3798" />
  </sodipodi:namedview>
  <metadata
     id="metadata7">
    <rdf:RDF>
      <cc:Work
         rdf:about="">
        <dc:format>image/svg+xml</dc:format>
        <dc:type
           rdf:resource="http://purl.org/dc/dcmitype/StillImage" />
        <dc:title></dc:title>
      </cc:Work>
    </rdf:RDF>
  </metadata>
  <g
     inkscape:label="Ebene 1"
     inkscape:groupmode="layer"
     id="layer1"
     transform="translate(1599.7735,113.89023)">
    <g
       id="g2996"
       transform="translate(-882.85711,-60)">
      <path
         style="fill:#d5501e"
         d="m -580.39931,640.24862 c -47.81965,-6.96518 -90.36869,-42.04692 -115.58383,-95.299 -21.9476,-46.35133 -24.80964,-109.99458 -7.24413,-161.08745 7.61822,-22.15914 21.66186,-46.00536 38.0635,-64.63214 21.32387,-24.21679 45.36912,-39.17252 74.89668,-46.58443 l 10.8385,-2.72065 40.5,-0.0314 40.5,-0.0314 0.25264,185.75 0.25264,185.75 -38.25264,-0.12194 c -21.03895,-0.0671 -40.93946,-0.51329 -44.22336,-0.99161 z m 21.27072,-59.08645 c 0.9205,-0.9205 1.2,-30.23946 1.2,-125.87756 0,-110.19232 -0.17614,-124.82373 -1.51608,-125.93579 -1.05995,-0.87968 -3.24121,-1.05558 -7.25,-0.58467 -30.62057,3.59699 -56.4822,24.12811 -73.18201,58.09802 -11.65635,23.71076 -14.56466,37.6838 -14.46554,69.5 0.0597,19.14882 0.39451,24.01748 2.24825,32.68841 5.63774,26.37082 16.54935,47.96505 33.14945,65.60322 14.90794,15.84018 26.92537,22.68198 47.51593,27.05191 4.26338,0.90481 11.15624,0.60022 12.3,-0.54354 z M 575.63881,384.47128 c -0.562,-0.90943 -21.8675,-51.97317 -30.6801,-73.53251 -2.6806,-6.55787 -4.6996,-12.09765 -4.4866,-12.31061 0.4131,-0.4131 0.9766,0.29587 22.8583,28.7572 7.8325,10.18775 18.6285,24.21063 23.991,31.16196 5.3625,6.95133 9.75,13.30648 9.75,14.12257 0,1.52424 -5.6857,5.48017 -14.492,10.08304 -5.4889,2.86893 -6.1312,3.02794 -6.9406,1.71835 z m 32.9326,-55.88283 c -9.9,-7.57524 -22.95,-17.55071 -29,-22.16772 -23.0437,-17.58559 -26.5354,-20.35647 -26.1447,-20.74715 0.2212,-0.22127 5.5193,1.68675 11.7735,4.24003 6.2542,2.55329 16.0962,6.56915 21.8712,8.92413 20.9659,8.54968 52.5114,21.77111 52.9788,22.20457 1.169,1.08431 -10.6502,21.32007 -12.4522,21.31958 -0.5646,-1.6e-4 -9.1266,-6.19821 -19.0266,-13.77344 z m 27.5,-49.78868 c -10.463,-1.46112 -42.0324,-5.64523 -60,-7.95224 -15.1055,-1.93951 -20.8389,-3.06669 -19,-3.73534 0.825,-0.29998 7.35,-1.28018 14.5,-2.17822 12.5092,-1.57117 24.7457,-3.18997 57.0292,-7.54457 8.2661,-1.11498 16.8745,-2.02723 19.1298,-2.02723 l 4.1006,0 0.4685,6.25 c 0.2577,3.4375 0.2502,9.0625 -0.017,12.5 l -0.4852,6.25 -3.1131,-0.11788 c -1.7122,-0.0648 -7.3881,-0.71487 -12.6131,-1.44452 z m -155,-32.56311 c -5.225,-2.15718 -13.1,-5.44092 -17.5,-7.29719 -17.1037,-7.21572 -37.4715,-15.5773 -37.9444,-15.5773 -0.273,0 -2.8722,-1.04623 -5.776,-2.32496 -2.9038,-1.27872 -7.3046,-3.1591 -9.7796,-4.17862 -6.5216,-2.68643 -7.4675,-3.73652 -5.9717,-6.62976 4.2857,-8.28943 10.5589,-17.86666 11.7029,-17.86666 1.5976,0 4.0772,1.72072 18.7286,12.99701 6.0721,4.67336 15.1713,11.64836 20.2203,15.5 44.8129,34.18519 42.6858,32.13427 26.3199,25.37748 z m 71,3.72663 c 0,-0.21938 5.0625,-4.24732 11.25,-8.95098 6.1875,-4.70366 13.725,-10.44914 16.75,-12.76773 3.025,-2.3186 11.125,-8.49312 18,-13.72117 6.875,-5.22804 16.2757,-12.43978 20.8905,-16.02608 l 8.3905,-6.52056 2.3642,2.9427 c 3.6842,4.58545 10.6554,18.54784 9.7065,19.44084 -0.9818,0.92409 -10.3376,4.98711 -28.8517,12.52965 -7.15,2.91288 -22.9,9.38145 -35,14.37461 -21.0814,8.69941 -23.5,9.59466 -23.5,8.69872 z m -54.1949,-19.32186 c -5.1941,-6.43778 -14.927,-19.07151 -40.5654,-52.6556 -6.2462,-8.18198 -11.1269,-15.47527 -10.846,-16.2073 0.5831,-1.51944 5.4259,-4.69801 14.0861,-9.24539 4.7179,-2.4773 6.2305,-2.87942 7.1676,-1.90545 1.1662,1.21212 1.9911,3.0952 11.0541,25.23448 6.5926,16.10474 8.4737,20.65459 14.2639,34.5 9.7607,23.33938 10.9762,26.39175 10.6426,26.72531 -0.1832,0.18327 -2.7945,-2.71745 -5.8029,-6.44605 z m 43.1343,1.57955 c 1.0486,-2.94734 3.8925,-10.08381 6.3198,-15.85881 2.4274,-5.775 6.5674,-15.675 9.2002,-22 17.2571,-41.45925 18.1949,-43.50013 20.1173,-43.78103 2.1674,-0.31671 18.2615,8.57734 19.728,10.90231 0.9915,1.57187 1.1696,1.32386 -29.812,41.50791 -7.154,9.27895 -15.6468,20.34917 -18.873,24.6005 -7.9818,10.51805 -9.0351,11.24794 -6.6803,4.62912 z m -20.3481,-0.99081 c -0.2783,-1.3024 -1.0085,-6.418 -1.6225,-11.368 -1.0425,-8.40311 -2.9308,-22.61458 -6.5107,-49 -2.9919,-22.0516 -3.8363,-31.52209 -2.8922,-32.43867 1.0118,-0.98231 5.7678,-1.29905 17.3287,-1.15407 l 7.3946,0.0927 -0.6179,6.25 c -0.3399,3.4375 -1.5338,13 -2.6532,21.25 -1.9694,14.51473 -2.8513,21.20083 -6.9723,52.86093 -1.0639,8.1735 -2.1625,15.0891 -2.4414,15.36799 -0.2789,0.27889 -0.7348,-0.55852 -1.0131,-1.86092 z"
         id="path3002"
         inkscape:connector-curvature="0"
         sodipodi:nodetypes="csssscccccsccsssssssssscscsssscsscssccscssssscscccccssssssssssssssscccssscscscssccscsscsssccssscsssacc" />
      <path
         style="fill:#333333"
         d="m -475.92859,520.77656 0,-251.58562 41.25,0.44723 c 44.99671,0.48785 47.86791,0.80513 65.75,7.26563 48.87154,17.65647 90.31662,68.31876 104.05391,127.19508 5.41123,23.19182 6.92146,57.78864 3.59098,82.26329 -4.82227,35.4373 -17.56799,67.30256 -37.32388,93.31245 -28.62688,37.68913 -61.85918,57.36987 -104.32101,61.78068 -8.04694,0.83589 -11.87533,1.65918 -12.75,2.74186 -0.97054,1.20135 -1.25,15.70092 -1.25,64.85614 l 0,63.30887 -29.5,0 -29.5,0 z m 82.27309,58.50751 c 17.9955,-5.35125 33.90115,-17.19765 46.8881,-34.9219 13.80437,-18.83983 21.5113,-37.50411 26.01421,-63 1.97518,-11.18366 1.62583,-43.13326 -0.59593,-54.5 -5.99578,-30.67497 -16.47671,-52.03218 -35.01908,-71.35914 -14.9748,-15.60845 -31.13839,-23.97304 -51.27998,-26.53719 -4.45749,-0.56747 -5.51774,-0.36634 -7.26158,1.3775 -2.03688,2.03688 -2.04133,2.35204 -1.78041,126.06697 0.22974,108.92821 0.44417,124.14892 1.76158,125.04313 2.13236,1.44736 12.75256,0.36434 21.27309,-2.16937 z m 293.47431,61.5086 c -41.75579,-5.7104 -75.81103,-28.51012 -103.61094,-69.36672 -22.73366,-33.41091 -33.13646,-69.67355 -33.13646,-115.50887 0,-29.01859 3.06953,-48.86558 11.22131,-72.55491 15.72918,-45.70949 50.72708,-86.0412 89.36767,-102.98765 5.30884,-2.32827 15.11061,-5.63508 21.78173,-7.34847 l 12.12929,-3.11525 41,-0.0243 41,-0.0243 0.27451,105.5 c 0.15099,58.025 0.0299,106.5125 -0.26905,107.75 l -0.54356,2.25 -75.35851,0 c -66.98481,0 -75.50206,0.17297 -76.65043,1.55668 -1.06273,1.28051 -0.97545,2.92152 0.49198,9.25 1.975,8.51742 6.87316,21.91404 11.06443,30.26155 10.16306,20.24119 28.52904,39.35757 45.97789,47.85646 14.87941,7.24737 15.73191,7.36601 57.51274,8.00331 l 37.5,0.572 0.30091,24.5 c 0.1655,13.475 0.0206,26.8625 -0.32195,29.75 l -0.62287,5.25 -34.67805,-0.11788 c -22.71861,-0.0772 -38.04142,-0.57785 -44.43064,-1.45162 z m 18.68117,-216.00193 c 1.38237,-1.38237 1.57143,-7.0272 1.57143,-46.91821 0,-24.94073 -0.27314,-46.05859 -0.60699,-46.92857 -0.46328,-1.20729 -2.0614,-1.57829 -6.75,-1.56701 -27.96289,0.0673 -59.14436,24.0696 -75.32876,57.98522 -5.2927,11.09124 -11.27041,29.36527 -11.30183,34.55 -0.0269,4.43349 0.14608,4.45 46.61615,4.45 38.87446,0 44.4188,-0.19023 45.8,-1.57143 z M 1.56823,641.21447 C 1.2774,640.4566 1.15915,627.03691 1.30543,611.39295 l 0.26598,-28.44357 8.35798,-1.29659 c 17.71128,-2.74758 31.29966,-9.59671 44.85165,-22.60717 13.29296,-12.76178 22.41028,-26.28673 29.87292,-44.31455 5.14435,-12.42742 8.10371,-25.03023 10.0115,-42.63519 C 97.18489,448.84685 94.84271,426.628 87.5612,404.70204 79.56154,380.6136 64.37854,358.24641 47.16566,345.19242 35.27769,336.17677 18.43688,329.44338 7.57141,329.36164 c -2.2,-0.0165 -4.56953,-0.39161 -5.26563,-0.83346 -0.9834,-0.62421 -1.2064,-7.25515 -1,-29.73469 l 0.26563,-28.93132 9.78395,0.22492 c 23.27771,0.53513 49.31559,10.00916 70.29058,25.57565 10.22768,7.59042 23.99083,21.7898 32.66412,33.69943 11.8972,16.3365 11.3263,16.04724 16.2593,8.23798 1.6461,-2.60589 6.42844,-9.01298 10.62743,-14.23798 26.5521,-33.04003 59.22676,-50.87559 98.22602,-53.61697 l 9.6788,-0.68035 -0.2651,29.89866 -0.2651,29.89866 -6.5,0.64364 c -28.4519,2.81735 -54.52654,23.84247 -71.75165,57.85636 -17.65768,34.86808 -19.88123,84.54363 -5.52805,123.5 10.24716,27.81207 30.47152,52.36555 52.2797,63.47041 7.0625,3.59626 18.0509,6.85653 25.8602,7.67277 l 6.1398,0.64173 0,29.38893 c 0,24.0748 -0.2497,29.48475 -1.3809,29.91884 -2.6142,1.00314 -26.9544,-2.76951 -37.0283,-5.73927 -13.31096,-3.924 -30.06413,-12.26272 -40.59983,-20.20815 -11.14538,-8.4052 -27.75309,-25.7405 -36.37828,-37.97202 -4.36581,-6.19121 -7.44999,-9.65831 -8.42424,-9.47012 -0.8453,0.16328 -4.72101,4.79476 -8.61268,10.29217 -9.47832,13.38915 -28.57496,32.49703 -40.07577,40.09936 -20.89434,13.81168 -39.54954,20.13509 -67.73721,22.96033 -5.27041,0.52826 -6.85232,0.37527 -7.26597,-0.70268 z m 270.36668,-1.6023 c -0.1999,-1.5125 -0.2303,-15.0125 -0.068,-30 l 0.2959,-27.25 3.3259,0 c 5.1212,0 21.6323,-4.48772 27.6713,-7.52104 8.599,-4.31925 16.7866,-10.62278 25.4892,-19.62377 26.7082,-27.62405 40.0597,-68.81081 36.5034,-112.60519 -2.8911,-35.60132 -14.8881,-64.17025 -36.5772,-87.10282 -15.0856,-15.95043 -29.3167,-23.1459 -52.7544,-26.67341 l -3.75,-0.5644 0,-29.60228 0,-29.60229 9.712,0.68269 c 36.3916,2.55807 67.8842,18.71394 93.2869,47.85659 4.3493,4.98969 10.2913,12.58626 13.2045,16.88126 3.6691,5.40959 5.9111,7.80413 7.2966,7.79297 1.3968,-0.0113 4.2622,-3.22652 9.5,-10.65983 8.4664,-12.01516 24.08,-28.33122 34.4396,-35.989 20.7814,-15.36159 45.1065,-24.33083 70.3104,-25.92506 l 10.25,-0.64835 0,29.51476 0,29.51477 -7.75,1.19611 c -10.7504,1.65917 -17.5307,3.69089 -25.1908,7.54846 -25.2503,12.71586 -47.1908,42.47028 -56.432,76.52983 -7.6095,28.0457 -6.6147,65.22579 2.4749,92.5 10.4469,31.34648 32.7092,58.83172 56.3257,69.53992 7.4698,3.38699 21.1858,6.94254 26.8222,6.95307 l 3.75,0.007 0,29.53138 c 0,25.13873 -0.22,29.61579 -1.4787,30.09883 -2.4886,0.95494 -27.3248,-2.6381 -36.386,-5.26393 -32.0557,-9.28938 -58.3236,-29.73054 -81.8647,-63.70555 -1.7762,-2.5634 -3.8712,-4.66073 -4.6557,-4.66073 -0.7845,0 -4.7159,4.6125 -8.7365,10.25 -10.2272,14.34017 -28.8208,32.77695 -41.4162,41.06702 -17.8169,11.72678 -35.8312,18.32532 -57.7634,21.15851 -15.6641,2.02347 -15.4032,2.04367 -15.8353,-1.22553 z"
         id="path2998"
         inkscape:connector-curvature="0"
         sodipodi:nodetypes="ccssssssssccccsssssssssscssssscccsscsssssscsscsccsssssssssscsssssscsscsssssscccssssscscsssssssscccsssssscccssccssscccsssssscscsssssscc" />
    </g>
    <text
       xml:space="preserve"
       style="font-size:83.75806427px;font-style:normal;font-weight:normal;line-height:125%;letter-spacing:0px;word-spacing:0px;fill:#333333;fill-opacity:1;stroke:none;font-family:sans-serif"
       x="-1352.5691"
       y="662.26434"
       id="text3014"
       sodipodi:linespacing="125%"
       transform="scale(0.93221597,1.0727128)"><tspan
         sodipodi:role="line"
         id="tspan3016"
         x="-1352.5691"
         y="662.26434"
         style="font-style:normal;font-variant:normal;font-weight:normal;font-stretch:normal;fill:#333333;fill-opacity:1;font-family:Arial;-inkscape-font-specification:Arial">CMS &amp; PORTALSYSTEM</tspan></text>
    <text
       xml:space="preserve"
       style="font-size:404.38818359px;font-style:normal;font-weight:normal;line-height:125%;letter-spacing:0px;word-spacing:0px;fill:#333333;fill-opacity:1;stroke:none;font-family:sans-serif"
       x="-1617.347"
       y="180.51543"
       id="text3790"
       sodipodi:linespacing="125%"><tspan
         sodipodi:role="line"
         id="tspan3792"
         x="-1617.347"
         y="180.51543"
         style="font-style:normal;font-variant:normal;font-weight:bold;font-stretch:normal;font-family:Arial;-inkscape-font-specification:Arial Bold">OPEN</tspan></text>
  </g>
</svg>
